# xmcd CD database file
#
# Track frame offsets:
#	150
#	36182
#	51632
#	81032
#	122226
#	142443
#	183393
#	214876
#	231460
#
# Disc length: 3494 seconds
#
# Revision: 0
# Processed by: cddbd v1.5PL3 Copyright (c) Steve Scherf et al.
# Submitted via: CDex 1.51
#
DISCID=910da409
DTITLE=Gwen Sampé - Water Gazing 
DYEAR=2001
DGENRE=Jazz
TTITLE0=I Cover The WaterFront
TTITLE1=What is This Thing Called Love 
TTITLE2=There's a man Going Round Taking Names 
TTITLE3=Bernadette's Lament
TTITLE4=So nice
TTITLE5=I Want To dance
TTITLE6=True Love
TTITLE7=All Of You 
TTITLE8=Some Other Time
EXTD=YEAR: 2001
EXTT0=
EXTT1=
EXTT2=
EXTT3=
EXTT4=
EXTT5=
EXTT6=
EXTT7=
EXTT8=
PLAYORDER=
